<?xml version="1.0" encoding="UTF-8" standalone="no"?>
<svg
   xmlns:dc="http://purl.org/dc/elements/1.1/"
   xmlns:cc="http://creativecommons.org/ns#"
   xmlns:rdf="http://www.w3.org/1999/02/22-rdf-syntax-ns#"
   xmlns:svg="http://www.w3.org/2000/svg"
   xmlns="http://www.w3.org/2000/svg"
   id="svg8"
   version="1.1"
   viewBox="0 0 160 160"
   height="160mm"
   width="160mm">
  <defs
     id="defs2" />
  <metadata
     id="metadata5">
    <rdf:RDF>
      <cc:Work
         rdf:about="">
        <dc:format>image/svg+xml</dc:format>
        <dc:type
           rdf:resource="http://purl.org/dc/dcmitype/StillImage" />
        <dc:title></dc:title>
      </cc:Work>
    </rdf:RDF>
  </metadata>
  <ellipse
     style="opacity:1;fill:#00ff00;fill-opacity:1;fill-rule:nonzero;stroke:#000000;stroke-width:0.79594028;stroke-miterlimit:4;stroke-dasharray:none;stroke-opacity:1"
     id="path2181-5"
     cx="80.278824"
     cy="80.205078"
     rx="77.240662"
     ry="77.627678" />
  <ellipse
     style="opacity:1;fill:#ffdc00;fill-opacity:1;fill-rule:nonzero;stroke:#000000;stroke-width:0.63158858;stroke-miterlimit:4;stroke-dasharray:none;stroke-opacity:1"
     id="path2181-3"
     cx="80.278824"
     cy="80.205078"
     rx="61.291431"
     ry="61.598537" />
  <path
     id="path2181-3-3"
     d="m 19.00298,79.889566 a 61.291432,61.598542 0 0 0 -0.01551,0.315743 61.291432,61.598542 0 0 0 61.29135,61.598311 61.291432,61.598542 0 0 0 61.29134,-61.598311 61.291432,61.598542 0 0 0 -0.0114,-0.315743 z"
     style="opacity:1;fill:#ff6400;fill-opacity:1;fill-rule:nonzero;stroke:#000000;stroke-width:0.63158858;stroke-miterlimit:4;stroke-dasharray:none;stroke-opacity:1" />
  <path
     id="path2181-3-3-5-5"
     d="M 80.27893,141.90657 V 80.307747 h 61.29134 A 61.291437,61.598546 0 0 1 80.27893,141.90657 Z"
     style="opacity:1;fill:#ffdc00;fill-opacity:1;fill-rule:nonzero;stroke:#000000;stroke-width:0.63156044;stroke-miterlimit:4;stroke-dasharray:none;stroke-opacity:1" />
  <path
     id="path2181-3-3-5"
     d="M 80.278932,18.606527 V 80.205354 H 141.57027 A 61.291437,61.598546 0 0 0 80.278932,18.606527 Z"
     style="opacity:1;fill:#ff6400;fill-opacity:1;fill-rule:nonzero;stroke:#000000;stroke-width:0.63156044;stroke-miterlimit:4;stroke-dasharray:none;stroke-opacity:1" />
  <ellipse
     style="opacity:1;fill:#000000;fill-opacity:1;fill-rule:nonzero;stroke:#000000;stroke-width:0.68528527;stroke-miterlimit:4;stroke-dasharray:none;stroke-opacity:1"
     id="path2183"
     cx="80.278824"
     cy="80.205078"
     rx="17.265028"
     ry="17.351538" />
</svg>
