<?xml version="1.0" encoding="UTF-8" standalone="no"?>
<svg
   xmlns:dc="http://purl.org/dc/elements/1.1/"
   xmlns:cc="http://creativecommons.org/ns#"
   xmlns:rdf="http://www.w3.org/1999/02/22-rdf-syntax-ns#"
   xmlns:svg="http://www.w3.org/2000/svg"
   xmlns="http://www.w3.org/2000/svg"
   id="svg8"
   version="1.1"
   viewBox="0 0 160 160"
   height="160mm"
   width="160mm">
  <defs
     id="defs2" />
  <metadata
     id="metadata5">
    <rdf:RDF>
      <cc:Work
         rdf:about="">
        <dc:format>image/svg+xml</dc:format>
        <dc:type
           rdf:resource="http://purl.org/dc/dcmitype/StillImage" />
        <dc:title></dc:title>
      </cc:Work>
    </rdf:RDF>
  </metadata>
  <circle
     cx="80"
     cy="80"
     id="path2181"
     r="77"
     style="opacity:1;fill:#ff0000;fill-opacity:1;fill-rule:nonzero;stroke:#000000;stroke-width:2;stroke-miterlimit:4;stroke-dasharray:none;stroke-opacity:1" />
  <circle
     cx="80"
     cy="80"
     id="path2182"
     r="56"
     style="opacity:1;fill:#000000;fill-opacity:1;fill-rule:nonzero;stroke:#000000;stroke-width:0;stroke-miterlimit:4;stroke-dasharray:none;stroke-opacity:1" />
  <path
     d="m 47.838565,68.879234 c 3.573008,-0.652149 2.999039,3.50262 2.237029,4.664464 0.834934,0.509354 1.67303,1.658344 2.506106,1.791679 0.881945,-0.722905 1.763889,-1.445811 2.645834,-2.168716 -2.984828,-2.062563 0.226715,-5.107486 2.88288,-4.287427 1.90979,0.162173 4.16307,-0.513461 5.718342,0.890839 1.766974,2.760547 -1.538212,3.316894 -3.071797,4.573719 -1.645494,1.371245 -3.290989,2.74249 -4.936483,4.113736 2.310953,1.930862 4.621907,3.861724 6.93286,5.792586 3.858769,-0.169367 2.624755,5.695718 -0.900146,4.561092 -2.204084,-0.108911 -4.476933,0.275341 -6.617817,-0.327115 -2.517714,-1.007094 -0.421144,-4.100789 0.357001,-4.456596 -1.049035,-0.853216 -2.098071,-1.706431 -3.147106,-2.559647 -1.109866,0.927422 -2.219732,1.854844 -3.329597,2.782266 3.293009,1.074404 1.246975,5.550454 -1.806328,4.561092 -2.261605,-0.162613 -4.693829,0.434335 -6.791331,-0.570136 -2.35394,-2.528446 0.907121,-3.769784 2.636161,-4.808171 1.895944,-1.673661 3.791888,-3.347322 5.687832,-5.020982 -1.946066,-1.657197 -3.892132,-3.314394 -5.838198,-4.971591 -3.785279,0.01145 -2.464926,-5.672994 0.991368,-4.561092 1.28113,0 2.56226,0 3.84339,0 z M 93.522893,93.3723 c 0,1.520362 0,3.040726 0,4.561091 -9.12219,0 -18.24437,0 -27.366554,0 0,-1.520365 0,-3.040729 0,-4.561091 9.122184,0 18.244364,0 27.366554,0 z m 3.44861,-4.561094 c -3.97147,0.644342 -3.65684,-5.077318 -0.0926,-4.831459 2.44825,-2.920198 4.896487,-5.840396 7.344737,-8.760595 -2.40218,-2.812673 -4.804347,-5.625347 -7.206517,-8.43802 -3.97042,0.328052 -2.93689,-5.686684 0.7177,-4.561092 2.02988,0.141496 4.220427,-0.397805 6.089717,0.570137 2.43753,1.580284 -1.21832,3.532468 -0.50561,4.47729 1.28981,1.479881 2.57961,2.959763 3.86942,4.439644 1.41394,-1.657196 2.82788,-3.314393 4.24182,-4.97159 -3.38877,-1.312527 -1.03338,-5.520033 2.02835,-4.515481 1.99021,0.16306 4.26533,-0.488665 5.97351,0.783938 1.9371,3.053658 -1.80012,3.2193 -3.07396,4.855588 -2.08354,2.468399 -4.16708,4.936798 -6.25062,7.405197 2.53902,2.995117 5.07802,5.990234 7.61702,8.985351 4.0022,-0.405291 3.01857,5.6954 -0.67209,4.561092 -2.31999,-0.166767 -4.81211,0.441375 -6.96774,-0.570136 -2.21895,-1.682019 0.60296,-4.177776 1.52883,-4.260886 -1.45984,-1.73446 -2.91967,-3.46892 -4.37951,-5.20338 -1.55077,1.824437 -3.10154,3.648874 -4.65231,5.47331 3.85876,-0.169367 2.62476,5.695718 -0.90015,4.561092 -1.56999,0 -3.139987,0 -4.709997,0 z"
     id="text889-8"
     style="fill:#ffffff;fill-opacity:1;stroke:#ffffff;stroke-width:2;stroke-linecap:butt;stroke-linejoin:miter;stroke-opacity:1" />
</svg>
