<?xml version="1.0" encoding="UTF-8" standalone="no"?>
<svg
   xmlns:dc="http://purl.org/dc/elements/1.1/"
   xmlns:cc="http://creativecommons.org/ns#"
   xmlns:rdf="http://www.w3.org/1999/02/22-rdf-syntax-ns#"
   xmlns:svg="http://www.w3.org/2000/svg"
   xmlns="http://www.w3.org/2000/svg"
   width="160mm"
   height="160mm"
   viewBox="0 0 160 160"
   version="1.1"
   id="svg8">
  <defs
     id="defs2" />
  <metadata
     id="metadata5">
    <rdf:RDF>
      <cc:Work
         rdf:about="">
        <dc:format>image/svg+xml</dc:format>
        <dc:type
           rdf:resource="http://purl.org/dc/dcmitype/StillImage" />
        <dc:title></dc:title>
      </cc:Work>
    </rdf:RDF>
  </metadata>
  <ellipse
     ry="77.627678"
     rx="77.240662"
     cy="80.205078"
     cx="80.278824"
     id="path2181-5"
     style="opacity:1;fill:#000000;fill-opacity:1;fill-rule:nonzero;stroke:#000000;stroke-width:0.79594028;stroke-miterlimit:4;stroke-dasharray:none;stroke-opacity:1" />
  <path
     style="opacity:1;fill:#ff6400;fill-opacity:1;fill-rule:nonzero;stroke:#000000;stroke-width:0.6315604;stroke-miterlimit:4;stroke-dasharray:none;stroke-opacity:1"
     d="M 80.196548,18.606518 V 141.80364 A 61.291434,61.598544 0 0 0 141.48779,80.205342 61.291434,61.598544 0 0 0 80.196548,18.606518 Z"
     id="path2181-3-3" />
  <ellipse
     ry="17.351538"
     rx="17.265028"
     cy="80.205078"
     cx="79.880753"
     id="path2183"
     style="opacity:1;fill:#ffffff;fill-opacity:1;fill-rule:nonzero;stroke:#000000;stroke-width:0;stroke-miterlimit:4;stroke-dasharray:none;stroke-opacity:1" />
  <path
     id="path2181-5-3"
     d="M 80.278724,2.577518 V 18.606514 A 61.291432,61.598542 0 0 1 141.57008,80.204821 61.291432,61.598542 0 0 1 80.278724,141.80364 v 16.029 A 77.240663,77.62768 0 0 0 157.51949,80.204821 77.240663,77.62768 0 0 0 80.278724,2.577518 Z"
     style="opacity:1;fill:#00ff00;fill-opacity:1;fill-rule:nonzero;stroke:#000000;stroke-width:0.79594028;stroke-miterlimit:4;stroke-dasharray:none;stroke-opacity:1" />
  <path
     id="path2183-7"
     d="M 79.880754,62.853425 V 97.556733 A 17.265028,17.351538 0 0 0 97.145332,80.204821 17.265028,17.351538 0 0 0 79.880754,62.853425 Z"
     style="opacity:1;fill:#000004;fill-opacity:1;fill-rule:nonzero;stroke:#000000;stroke-width:0;stroke-miterlimit:4;stroke-dasharray:none;stroke-opacity:1" />
</svg>
