<?xml version="1.0" encoding="UTF-8" standalone="no"?>
<svg
   xmlns:dc="http://purl.org/dc/elements/1.1/"
   xmlns:cc="http://creativecommons.org/ns#"
   xmlns:rdf="http://www.w3.org/1999/02/22-rdf-syntax-ns#"
   xmlns:svg="http://www.w3.org/2000/svg"
   xmlns="http://www.w3.org/2000/svg"
   id="svg8"
   version="1.1"
   viewBox="0 0 160 160"
   height="160mm"
   width="160mm">
  <defs
     id="defs2" />
  <metadata
     id="metadata5">
    <rdf:RDF>
      <cc:Work
         rdf:about="">
        <dc:format>image/svg+xml</dc:format>
        <dc:type
           rdf:resource="http://purl.org/dc/dcmitype/StillImage" />
        <dc:title></dc:title>
      </cc:Work>
    </rdf:RDF>
  </metadata>
  <path
     d="m 56.688628,63.940924 c -15.347242,0 -27.788764,12.134442 -27.789139,27.103332 0.0026,0.23216 0.01344,0.46399 0.02687,0.69579 -0.217122,-0.0134 -0.434513,-0.0242 -0.65201,-0.0335 -11.477993,-0.58297 -27.2733379,13.372804 -25.6329495,27.486734 0.6662273,12.4273 5.7202962,18.60304 16.0345905,24.1884 v 0 c 10.217021,6.90666 29.107751,7.73259 38.520642,8.00289 34.283599,0.98465 47.236578,2.15351 83.604128,-4.11112 v 0 c 10.08835,-3.4497 16.71202,-11.83709 16.71288,-21.75098 -0.003,-9.19864 -6.07708,-17.31127 -14.95555,-19.9741 -1.43767,-10.317524 -7.37785,-18.589634 -17.88057,-18.601084 -1.90926,3.3e-4 -6.75647,0.84275 -8.59567,1.35126 -3.15079,-8.01409 -10.93605,-13.29088 -19.609697,-13.2913 -5.263243,0.006 -10.332521,1.97128 -14.208302,5.50262 C 77.925376,70.477936 67.8533,63.951854 56.690243,63.939714 Z"
     style="opacity:1;fill:#7ea2b6;fill-opacity:1;stroke:#000000;stroke-width:4.90152884;stroke-miterlimit:4;stroke-dasharray:none;stroke-opacity:1"
     id="path4528" />
  <path
     id="text889-8"
     d="m 46.107778,97.948026 c -5.276321,-0.182581 -9.64534,5.415324 -8.173283,10.498334 1.066276,5.04329 7.205353,7.89627 11.788806,5.61064 4.897636,-2.06911 6.462829,-9.02809 2.94966,-13.00009 -1.591583,-1.964328 -4.022029,-3.171741 -6.565183,-3.108884 z m 67.689412,0 c -5.27632,-0.182578 -9.64535,5.415324 -8.17329,10.498334 1.06628,5.04328 7.20536,7.89627 11.78881,5.61064 4.89763,-2.06911 6.46283,-9.02809 2.94966,-13.00009 -1.59158,-1.964328 -4.02203,-3.171741 -6.56518,-3.108884 z M 80.424548,128.7787 c -2.556047,2.22019 -5.372563,4.18377 -7.74406,6.58611 -1.0008,3.27113 3.063094,2.66673 4.305496,0.78808 1.146188,-0.94739 2.292376,-1.89478 3.438564,-2.84217 1.860127,1.46183 3.584348,3.12268 5.540182,4.4447 3.686069,0.50925 2.243696,-3.53303 0.03211,-4.43169 -1.857433,-1.51501 -3.714864,-3.03002 -5.572297,-4.54503 z"
     style="fill:#000001;fill-opacity:1;stroke:none;stroke-width:0.9337675px;stroke-linecap:butt;stroke-linejoin:miter;stroke-opacity:1" />
  <path
     id="path941"
     d="M 35.101672,9.3372666 C 29.491286,19.830431 20.330964,33.87891 20.32279,43.573566 c -3.1e-5,8.373192 6.78764,15.161093 15.160832,15.161347 8.373393,3.2e-5 15.161379,-6.787954 15.161347,-15.161347 C 50.855967,34.297264 40.60272,19.70445 35.101672,9.3372666 Z"
     style="opacity:1;fill:#6f7dff;fill-opacity:1;fill-rule:nonzero;stroke:#000000;stroke-width:1.32291663;stroke-miterlimit:4;stroke-dasharray:none;stroke-opacity:1" />
  <path
     id="path941-3"
     d="M 82.726702,22.037274 C 77.116316,32.530438 67.955994,46.578917 67.94782,56.273572 c -3.1e-5,8.373192 6.78764,15.161093 15.160832,15.161347 8.373393,3.2e-5 15.161378,-6.787954 15.161346,-15.161347 C 98.480995,46.997271 88.227749,32.404458 82.726702,22.037274 Z"
     style="opacity:1;fill:#6f7dff;fill-opacity:1;fill-rule:nonzero;stroke:#000000;stroke-width:1.32291663;stroke-miterlimit:4;stroke-dasharray:none;stroke-opacity:1" />
  <path
     id="path941-6"
     d="M 128.23522,7.7497665 C 122.6248,18.24293 113.46443,32.291409 113.45626,41.986064 c -3e-5,8.373192 6.78768,15.161093 15.16092,15.161347 8.37343,3.2e-5 15.16146,-6.787954 15.16143,-15.161347 0.211,-9.276301 -10.04231,-23.869114 -15.54339,-34.2362975 z"
     style="opacity:1;fill:#6f7dff;fill-opacity:1;fill-rule:nonzero;stroke:#000000;stroke-width:1.32291663;stroke-miterlimit:4;stroke-dasharray:none;stroke-opacity:1" />
</svg>
