<?xml version="1.0" encoding="UTF-8" standalone="no"?>
<svg
   xmlns:dc="http://purl.org/dc/elements/1.1/"
   xmlns:cc="http://creativecommons.org/ns#"
   xmlns:rdf="http://www.w3.org/1999/02/22-rdf-syntax-ns#"
   xmlns:svg="http://www.w3.org/2000/svg"
   xmlns="http://www.w3.org/2000/svg"
   id="svg8"
   version="1.1"
   viewBox="0 0 160 160"
   height="160mm"
   width="160mm">
  <defs
     id="defs2" />
  <metadata
     id="metadata5">
    <rdf:RDF>
      <cc:Work
         rdf:about="">
        <dc:format>image/svg+xml</dc:format>
        <dc:type
           rdf:resource="http://purl.org/dc/dcmitype/StillImage" />
        <dc:title></dc:title>
      </cc:Work>
    </rdf:RDF>
  </metadata>
  <path
     id="path4528"
     style="opacity:1;fill:#ffa000;fill-opacity:1;stroke:#000000;stroke-width:4.90152884;stroke-miterlimit:4;stroke-dasharray:none;stroke-opacity:1"
     d="m 56.688628,7.84923 c -15.347242,0 -27.788764,12.13444 -27.789139,27.10333 0.0026,0.23216 0.01344,0.46399 0.02687,0.69579 -0.217122,-0.0134 -0.434513,-0.0242 -0.65201,-0.0335 C 16.796356,35.03188 1.0010111,48.98765 2.6413995,63.10158 3.3076268,75.52888 8.3616957,81.70459 18.67599,87.28992 v 0 c 10.217021,6.90661 29.107751,7.73254 38.520642,8.00284 34.283599,0.98464 47.236578,2.1535 83.604128,-4.1111 v 0 c 10.08835,-3.44968 16.71202,-11.83702 16.71288,-21.75089 -0.003,-9.19864 -6.07708,-17 -14.95555,-19.9741 -1.43767,-10.31752 -7.37785,-18.58963 -17,-18.60108 -1.90926,3.3e-4 -6.75647,0.84275 -8.59567,1.35126 C 112.93106,24.19276 105.1458,18.91597 96.472153,18.91555 91.20891,18.92155 86.139632,20.88683 82.263851,24.41817 77.925376,14.38624 67.8533,7.86016 56.690243,7.84802 Z" />
  <ellipse
     style="opacity:1;fill:#ff6000;fill-opacity:1;fill-rule:nonzero;stroke:none;stroke-width:6.69117641;stroke-miterlimit:4;stroke-dasharray:none;stroke-opacity:1"
     id="path829"
     cx="42"
     cy="73"
     rx="17"
     ry="6" />
  <path
     id="text889"
     d="m 37.685129,68.707993 c -3.360319,-0.444443 -2.287324,-4.75281 0.503282,-5.223326 4.2486,-2.164995 8.4972,-4.32999 12.7458,-6.494986 -4.832506,-2.564987 -9.71648,-5.042717 -14.515927,-7.663749 -2.829044,-2.234823 1.287543,-5.818701 3.539191,-3.390252 7.33628,3.702262 14.67256,7.404524 22.00884,11.106786 -7.864618,3.829546 -15.660443,7.817305 -23.568586,11.54676 z m 58.148657,8.076133 c 0,1.759507 0,3.519013 0,5.278519 -10.557037,0 -21.114075,0 -31.671112,0 0,-1.759506 0,-3.519012 0,-5.278519 10.557037,0 21.114075,0 31.671112,0 z M 122.31133,45.060229 c 3.31662,0.52054 2.28827,4.728733 -0.50328,5.223325 -4.2486,2.164996 -8.4972,4.329991 -12.7458,6.494986 4.82572,2.57396 9.76066,4.965395 14.51593,7.657152 2.81506,2.262997 -1.28363,5.820807 -3.53919,3.39685 C 112.70271,64.13028 105.36643,60.428018 98.030145,56.725755 105.89476,52.89621 113.69059,48.908451 121.59873,45.178996 Z"
     style="fill:#000000;fill-opacity:1;stroke:none;stroke-width:0.98972225px;stroke-linecap:butt;stroke-linejoin:miter;stroke-opacity:1" />
  <ellipse
     style="opacity:1;fill:#ff6000;fill-opacity:1;fill-rule:nonzero;stroke:none;stroke-width:6.69117641;stroke-miterlimit:4;stroke-dasharray:none;stroke-opacity:1"
     id="path829-3"
     cx="117"
     cy="74"
     rx="17"
     ry="5" />
  <path
     style="fill:none;fill-rule:evenodd;stroke:#e900ff;stroke-width:5.90976667;stroke-linecap:butt;stroke-linejoin:miter;stroke-miterlimit:4;stroke-dasharray:none;stroke-opacity:1"
     d="m 16.524475,139.6456 c 13.592392,-3.33285 25.94945,-2.58209 36.241834,11.53149"
     id="path2313" />
  <path
     style="fill:none;fill-rule:evenodd;stroke:#ff00b8;stroke-width:8.08806324;stroke-linecap:butt;stroke-linejoin:miter;stroke-miterlimit:4;stroke-dasharray:none;stroke-opacity:1"
     d="m 13.387441,126.71294 c 18.602454,-4.56132 35.514235,-3.53382 49.600315,15.78192"
     id="path2313-5" />
  <path
     style="fill:none;fill-rule:evenodd;stroke:#ff005a;stroke-width:10.53864765;stroke-linecap:butt;stroke-linejoin:miter;stroke-miterlimit:4;stroke-dasharray:none;stroke-opacity:1"
     d="m 10.383825,112.97247 c 24.23876,-5.94335 46.274603,-4.60453 64.628597,20.56365"
     id="path2313-5-6" />
  <path
     style="fill:none;fill-rule:evenodd;stroke:#ffae00;stroke-width:5.87904596;stroke-linecap:butt;stroke-linejoin:miter;stroke-miterlimit:4;stroke-dasharray:none;stroke-opacity:1"
     d="m 95.970359,116.4117 c 13.521731,3.31553 25.814551,2.56866 36.053431,-11.47155"
     id="path2313-2" />
  <path
     style="fill:none;fill-rule:evenodd;stroke:#deff00;stroke-width:8.04601955;stroke-linecap:butt;stroke-linejoin:miter;stroke-miterlimit:4;stroke-dasharray:none;stroke-opacity:1"
     d="m 92.849634,129.27713 c 18.505746,4.53762 35.329616,3.51545 49.342476,-15.69988"
     id="path2313-5-9" />
  <path
     style="fill:none;fill-rule:evenodd;stroke:#7cff64;stroke-width:10.48386478;stroke-linecap:butt;stroke-linejoin:miter;stroke-miterlimit:4;stroke-dasharray:none;stroke-opacity:1"
     d="m 89.861632,142.94617 c 24.112758,5.91246 46.034048,4.5806 64.292628,-20.45674"
     id="path2313-5-6-1" />
</svg>
